<?xml version="1.0" encoding="utf-8"?>
<!-- Generator: Adobe Illustrator 19.1.0, SVG Export Plug-In . SVG Version: 6.00 Build 0)  -->
<svg version="1.1" id="Layer_1" xmlns="http://www.w3.org/2000/svg" xmlns:xlink="http://www.w3.org/1999/xlink" x="0px" y="0px"
	 viewBox="0 0 38.9 84" style="enable-background:new 0 0 38.9 84;" xml:space="preserve">
<style type="text/css">
	.st0{fill:#66B245;}
</style>
<path class="st0" d="M23.4,8V3.9c0-2.2-1.8-3.9-3.9-3.9c-2.2,0-3.9,1.8-3.9,3.9v4.8c2.1-0.5,4.2-0.9,6.3-0.9C22.4,7.8,22.9,8,23.4,8
	"/>
<path class="st0" d="M15.5,75.7v4.3c0,2.2,1.8,3.9,3.9,3.9c2.2,0,3.9-1.8,3.9-3.9V75c-2.1,0.5-4.2,0.9-6.3,0.9
	C16.5,75.9,16.1,75.8,15.5,75.7"/>
<path class="st0" d="M38.1,25.3c1.2-1.8,0.6-4.2-1.2-5.4l-6.3-4c-4.4-2.8-9.4-3.6-14.1-2.8c-0.3,0.1-0.6,0-0.9,0.1
	c-1.7,0.4-3.4,1.1-4.9,1.9c-3,1.6-5.6,3.8-7.6,6.8c-5.9,9.2-3.2,21.6,6,27.5l6.3,4c0.9,0.6,2,0.7,2.9,0.5c1-0.2,1.9-0.8,2.5-1.7
	c1.2-1.8,0.6-4.2-1.2-5.4l-6.3-4c-5.6-3.6-7.3-11.1-3.7-16.7c1.8-2.8,4.6-4.6,7.6-5.3c3-0.7,6.3-0.2,9.1,1.6l6.3,4
	c0.9,0.6,2,0.7,2.9,0.5S37.6,26.2,38.1,25.3"/>
<path class="st0" d="M23.4,30.3c-0.9-0.6-2-0.7-2.9-0.5c-1,0.2-1.9,0.8-2.5,1.7c-1.2,1.8-0.6,4.2,1.2,5.4l6.3,4
	c5.6,3.6,7.3,11.1,3.7,16.7c-1.8,2.8-4.6,4.6-7.6,5.3c-3,0.7-6.3,0.2-9.1-1.6l-6.3-4c-0.9-0.6-2-0.7-2.9-0.5c-1,0.2-1.9,0.8-2.5,1.7
	c-1.2,1.8-0.6,4.2,1.2,5.4l6.3,4c4.5,2.9,9.7,3.7,14.6,2.7c0.1,0,0.3,0,0.4,0c1.5-0.3,2.9-0.9,4.2-1.5c3.3-1.5,6.2-3.9,8.3-7.2
	c5.9-9.3,3.2-21.6-6-27.5L23.4,30.3z"/>
</svg>
